:SAMPLES-PER-SECOND 30
:FULLY-SPECIFIED
:DEGREES
350
root  -15.6959 34.4746 -3.04134 -155.683 1.71474 -179.122
RightUpLeg  -33.9716 -3.48519 4.00941
RightLeg  8.02751 -1.83484 -0.138111
RightFoot  10.8192 0.0717913 -0.213206
RightToes  -22.7485 -0.0973048 -0.198546
Spine  5.50348 0.552533 0.42273
Spine1  10.99 1.10406 1.47436
HEad  -21.6217 -8.80266 0.0474596
LeftShoulder1  -1.94126e-019 -3.10601e-018 -2.51263e-017
LeftArm  -11.9516 17.5231 -80.4584
LeftForeArm  20.0672 -31.4965 -5.74072
LeftHand  -0.523695 -1.97697 8.44336
RightShoulder  -4.96962e-017 0 -2.36833e-017
RightArm  -22.6455 -14.9114 77.8028
RightForeArm  37.9473 24.6003 3.22537
RightHand  -0.377678 -1.64322 -11.781
LeftUpLeg  -38.5674 -2.25515 0.654259
LeftLeg  18.8428 10.4483 2.81049
LeftFoot  5.60667 -0.0519757 1.22297
LeftToes  -17.4933 1.31424e-006 1.14295e-007
351
root  -15.723 34.5647 -3.51679 -157.825 2.07747 -179.509
RightUpLeg  -31.0472 -3.93628 3.48002
RightLeg  7.95268 -1.44127 -0.10637
RightFoot  9.99245 0.057599 -0.116548
RightToes  -23.6153 -0.102516 -0.205236
Spine  4.56128 0.493131 0.275826
Spine1  9.10828 0.991383 1.21223
HEad  -24.0099 -8.45949 -0.0187228
LeftShoulder1  -1.94126e-019 -3.10601e-018 -2.51263e-017
LeftArm  -11.8625 19.0433 -80.2193
LeftForeArm  20.4538 -31.3715 -5.69196
LeftHand  -0.528539 -1.94002 8.55984
RightShoulder  -4.96962e-017 0 -2.36833e-017
RightArm  -22.2017 -16.6375 77.8372
RightForeArm  38.7472 24.9624 3.26654
RightHand  -0.381789 -1.61961 -11.6593
LeftUpLeg  -34.7885 -2.96619 0.36545
LeftLeg  17.3025 11.5571 2.7768
LeftFoot  5.47378 -0.0539786 1.3042
LeftToes  -17.6646 1.31424e-006 1.14295e-007
352
root  -15.7353 34.6421 -3.97281 -159.65 2.39833 -179.952
RightUpLeg  -28.6564 -4.15523 2.82734
RightLeg  8.25724 -1.2355 -0.097644
RightFoot  9.07926 0.0476007 -0.0588874
RightToes  -24.4948 -0.107906 -0.211942
Spine  3.58084 0.429651 0.173147
Spine1  7.14864 0.871228 1.02688
HEad  -26.7678 -8.10597 -0.0571809
LeftShoulder1  -1.94126e-019 -3.10601e-018 -2.51263e-017
LeftArm  -12.1058 20.6559 -80.1139
LeftForeArm  20.5348 -31.3878 -5.69386
LeftHand  -0.499907 -1.62818 8.44285
RightShoulder  -4.96962e-017 0 -2.36833e-017
RightArm  -21.838 -18.4174 77.7903
RightForeArm  39.4476 25.3103 3.30971
RightHand  -0.385034 -1.56356 -11.5527
LeftUpLeg  -31.3382 -3.65505 -0.020451
LeftLeg  15.6916 12.7194 2.67954
LeftFoot  5.15423 -0.053159 1.34258
LeftToes  -19.0843 1.31424e-006 1.14295e-007
353
root  -15.7236 34.7064 -4.42019 -161.345 2.72511 179.677
RightUpLeg  -26.4466 -3.99854 2.16911
RightLeg  8.65939 -1.37214 -0.118273
RightFoot  8.13475 0.042321 -0.0544719
RightToes  -25.1741 -0.11214 -0.217066
Spine  2.70709 0.391373 0.0951354
Spine1  5.4011 0.801172 0.884287
HEad  -30.0827 -7.72157 0.0557225
LeftShoulder1  -1.94126e-019 -3.10601e-018 -2.51263e-017
LeftArm  -12.2224 22.0551 -79.9903
LeftForeArm  20.5122 -31.3903 -5.69754
LeftHand  -0.493432 -1.47446 8.51046
RightShoulder  -4.96962e-017 0 -2.36833e-017
RightArm  -21.623 -19.9119 77.7711
RightForeArm  40.1469 25.3393 3.28584
RightHand  -0.388699 -1.48065 -11.4256
LeftUpLeg  -27.9901 -3.91898 -0.472393
LeftLeg  13.9916 13.3919 2.41058
LeftFoot  4.79054 -0.0512501 1.3129
LeftToes  -19.7831 1.31424e-006 1.14295e-007
354
root  -15.7179 34.7576 -4.86892 -163.051 3.07806 179.259
RightUpLeg  -24.2296 -3.85156 1.4975
RightLeg  9.0441 -1.3681 -0.127202
RightFoot  7.16896 0.0355965 -0.0284459
RightToes  -25.1341 -0.111652 -0.216487
Spine  1.97547 0.371976 0.0137613
Spine1  3.93648 0.767251 0.731745
HEad  -33.7751 -7.23079 0.229875
LeftShoulder1  -1.94126e-019 -3.10601e-018 -2.51263e-017
LeftArm  -12.6039 23.2506 -79.9979
LeftForeArm  20.7214 -31.3102 -5.6664
LeftHand  -0.478961 -1.36267 8.39366
RightShoulder  -4.96962e-017 0 -2.36833e-017
RightArm  -21.3456 -21.1482 77.737
RightForeArm  40.9224 25.1547 3.21298
RightHand  -0.399567 -1.36569 -11.4259
LeftUpLeg  -24.6051 -4.18989 -1.02066
LeftLeg  12.1979 14.0566 2.08117
LeftFoot  4.50613 -0.0500896 1.29486
LeftToes  -19.612 1.31424e-006 1.14295e-007
355
root  -15.6953 34.7854 -5.27329 -164.469 3.16609 178.975
RightUpLeg  -22.3039 -3.82889 1.05901
RightLeg  9.33057 -1.37894 -0.135196
RightFoot  6.35274 0.0303623 -0.00818631
RightToes  -24.7485 -0.10948 -0.213862
Spine  1.28265 0.304415 0.000875355
Spine1  2.54938 0.636159 0.709619
HEad  -37.8003 -6.68134 0.685307
LeftShoulder1  -1.94126e-019 -3.10601e-018 -2.51263e-017
LeftArm  -13.1011 24.2316 -80.1703
LeftForeArm  21.0682 -31.0206 -5.57636
LeftHand  -0.476454 -1.35704 8.35708
RightShoulder  -4.96962e-017 0 -2.36833e-017
RightArm  -20.9532 -22.2593 77.6462
RightForeArm  41.6139 24.8935 3.1273
RightHand  -0.401463 -1.35469 -11.4507
LeftUpLeg  -21.8067 -4.22418 -1.43808
LeftLeg  10.7603 14.2161 1.7452
LeftFoot  4.32493 -0.0477483 1.25847
LeftToes  -19.678 1.31424e-006 1.14295e-007
356
root  -15.6544 34.7968 -5.61797 -165.432 2.97894 178.862
RightUpLeg  -20.8385 -3.84227 0.878667
RightLeg  9.50914 -1.50189 -0.152079
RightFoot  5.81596 0.0276434 -0.00619473
RightToes  -24.3442 -0.106976 -0.2108
Spine  0.586649 0.202855 0.02271
Spine1  1.15562 0.439521 0.752192
HEad  -41.9553 -6.32672 1.30617
LeftShoulder1  -1.94126e-019 -3.10601e-018 -2.51263e-017
LeftArm  -13.2747 25.0197 -80.3182
LeftForeArm  21.1924 -30.7968 -5.51584
LeftHand  -0.470443 -1.22304 8.51649
RightShoulder  -4.96962e-017 0 -2.36833e-017
RightArm  -20.8667 -23.2323 77.6535
RightForeArm  42.2774 24.3261 2.97953
RightHand  -0.400512 -1.34378 -11.3935
LeftUpLeg  -19.8971 -4.05784 -1.65305
LeftLeg  9.93987 13.8318 1.50039
LeftFoot  4.2262 -0.0440675 1.20125
LeftToes  -19.3965 1.31424e-006 1.14295e-007
357
root  -15.5975 34.8045 -5.95076 -166.516 2.70827 178.869
RightUpLeg  -19.1027 -3.96221 0.870524
RightLeg  9.36645 -1.58014 -0.156067
RightFoot  5.43638 0.0256987 -0.00262581
RightToes  -23.2505 -0.10031 -0.20243
Spine  0.0471615 0.0692256 0.0935029
Spine1  0.0737856 0.177351 0.8948
HEad  -45.8249 -5.92672 1.92608
LeftShoulder1  -1.94126e-019 -3.10601e-018 -2.51263e-017
LeftArm  -13.6918 25.5806 -80.6744
LeftForeArm  21.433 -30.1863 -5.35489
LeftHand  -0.472384 -1.23654 8.44308
RightShoulder  -4.96962e-017 0 -2.36833e-017
RightArm  -21.0417 -23.7791 77.7084
RightForeArm  43.1752 23.2602 2.72325
RightHand  -0.41119 -1.23644 -11.4096
LeftUpLeg  -18.0537 -4.15187 -1.67596
LeftLeg  9.44414 13.6879 1.36661
LeftFoot  4.15385 -0.0421481 1.17141
LeftToes  -18.9233 1.31424e-006 1.14295e-007
358
root  -15.5317 34.8097 -6.27708 -167.856 2.34674 178.932
RightUpLeg  -17.0252 -4.24711 0.931181
RightLeg  9.05573 -1.60522 -0.149753
RightFoot  5.11701 0.0241963 0.00411057
RightToes  -22.5606 -0.0961882 -0.197085
Spine  -0.297387 -0.103647 0.182784
Spine1  -0.621066 -0.162603 1.07154
HEad  -49.4123 -5.44479 2.58825
LeftShoulder1  -1.94126e-019 -3.10601e-018 -2.51263e-017
LeftArm  -13.9198 25.8086 -81.0975
LeftForeArm  21.5137 -29.2727 -5.13354
LeftHand  -0.469919 -1.12326 8.4973
RightShoulder  -4.96962e-017 0 -2.36833e-017
RightArm  -21.5404 -24.0409 77.8644
RightForeArm  44.1098 21.9341 2.41843
RightHand  -0.420175 -1.14626 -11.4228
LeftUpLeg  -16.1388 -4.34012 -1.64115
LeftLeg  9.28082 13.5925 1.31854
LeftFoot  4.0471 -0.0399843 1.13778
LeftToes  -17.9109 1.31424e-006 1.14295e-007
359
root  -15.46 34.807 -6.54117 -168.755 1.96179 179.033
RightUpLeg  -15.508 -4.76884 1.08075
RightLeg  8.79302 -1.41872 -0.125664
RightFoot  4.83636 0.0219488 0.0260114
RightToes  -22.5496 -0.0961227 -0.196999
Spine  -0.714417 -0.222098 0.250426
Spine1  -1.46051 -0.389626 1.20291
HEad  -52.4403 -5.18544 3.16598
LeftShoulder1  -1.94126e-019 -3.10601e-018 -2.51263e-017
LeftArm  -13.9547 26.0569 -81.4919
LeftForeArm  21.9521 -28.4397 -4.91649
LeftHand  -0.468047 -1.11956 8.49268
RightShoulder  -4.96962e-017 0 -2.36833e-017
RightArm  -22.1114 -24.3398 78.0753
RightForeArm  44.5564 20.3524 2.09251
RightHand  -0.421475 -1.14217 -11.4478
LeftUpLeg  -14.8985 -4.79645 -1.4877
LeftLeg  9.40295 13.6916 1.35713
LeftFoot  3.83908 -0.0371627 1.09392
LeftToes  -17.4479 1.31424e-006 1.14295e-007
360
root  -15.3789 34.8005 -6.814 -170.008 1.74942 179.174
RightUpLeg  -13.677 -5.58271 1.23754
RightLeg  8.6136 -0.757301 -0.0641847
RightFoot  4.43265 0.0175827 0.0819052
RightToes  -22.8719 -0.0980405 -0.199503
Spine  -0.94425 -0.295321 0.300385
Spine1  -1.92863 -0.52751 1.29054
HEad  -54.8302 -4.81427 3.87857
LeftShoulder1  -1.94126e-019 -3.10601e-018 -2.51263e-017
LeftArm  -13.6822 26.2593 -81.8006
LeftForeArm  22.3593 -27.691 -4.72368
LeftHand  -0.46372 -1.10676 8.43098
RightShoulder  -4.96962e-017 0 -2.36833e-017
RightArm  -22.4696 -24.6662 78.3292
RightForeArm  45.0877 19.5085 1.91189
RightHand  -0.419581 -1.15536 -11.4301
LeftUpLeg  -13.2866 -4.84769 -1.37295
LeftLeg  9.56867 13.6097 1.38852
LeftFoot  3.37654 -0.0294867 0.974609
LeftToes  -17.0949 1.31424e-006 1.14295e-007
361
root  -15.3055 34.7944 -7.04228 -170.761 1.87689 179.194
RightUpLeg  -12.5523 -6.81915 1.28916
RightLeg  8.60553 0.551524 0.0485893
RightFoot  3.99039 0.0111234 0.170628
RightToes  -24.8981 -0.110413 -0.21499
Spine  -1.31506 -0.263185 0.271398
Spine1  -2.67626 -0.456757 1.22412
HEad  -56.6909 -4.4403 4.43136
LeftShoulder1  -1.94126e-019 -3.10601e-018 -2.51263e-017
LeftArm  -12.9368 26.6656 -81.917
LeftForeArm  22.6973 -26.9833 -4.54738
LeftHand  -0.456208 -1.16923 8.22254
RightShoulder  -4.96962e-017 0 -2.36833e-017
RightArm  -22.3524 -24.975 78.5932
RightForeArm  45.8741 18.4582 1.68564
RightHand  -0.430012 -1.03696 -11.41
LeftUpLeg  -12.0192 -4.56198 -1.37385
LeftLeg  9.34116 13.5147 1.32535
LeftFoot  3.07054 -0.0242566 0.893317
LeftToes  -17.0505 1.31424e-006 1.14295e-007
